<svg width="24" height="24" viewBox="0 0 24 24" fill="none" xmlns="http://www.w3.org/2000/svg">
<path d="M8.34904 6.18605C7.96765 6.18605 7.65137 5.86977 7.65137 5.48837V2.69767C7.65137 2.31628 7.96765 2 8.34904 2C8.73044 2 9.04672 2.31628 9.04672 2.69767V5.48837C9.04672 5.86977 8.73044 6.18605 8.34904 6.18605Z" fill="#253017"/>
<path d="M15.7909 6.18605C15.4095 6.18605 15.0933 5.86977 15.0933 5.48837V2.69767C15.0933 2.31628 15.4095 2 15.7909 2C16.1723 2 16.4886 2.31628 16.4886 2.69767V5.48837C16.4886 5.86977 16.1723 6.18605 15.7909 6.18605Z" fill="#253017"/>
<path d="M8.81402 14.326C8.69309 14.326 8.57216 14.2981 8.46053 14.2516C8.3396 14.2051 8.24658 14.14 8.15356 14.0562C7.98612 13.8795 7.88379 13.6469 7.88379 13.3958C7.88379 13.2748 7.9117 13.1539 7.95821 13.0423C8.00472 12.9307 8.06984 12.8283 8.15356 12.7353C8.24658 12.6516 8.3396 12.5865 8.46053 12.5399C8.79542 12.4004 9.21402 12.4749 9.47449 12.7353C9.64193 12.9121 9.74425 13.1539 9.74425 13.3958C9.74425 13.4516 9.73495 13.5167 9.72565 13.5818C9.71635 13.6376 9.69774 13.6935 9.66983 13.7493C9.65123 13.8051 9.62333 13.8609 9.58612 13.9167C9.55821 13.9632 9.5117 14.0097 9.47449 14.0562C9.29774 14.2237 9.05588 14.326 8.81402 14.326Z" fill="#253017"/>
<path d="M12.0699 14.3262C11.949 14.3262 11.828 14.2983 11.7164 14.2518C11.5955 14.2053 11.5024 14.1402 11.4094 14.0565C11.242 13.8797 11.1396 13.6472 11.1396 13.396C11.1396 13.2751 11.1676 13.1541 11.2141 13.0425C11.2606 12.9309 11.3257 12.8286 11.4094 12.7355C11.5024 12.6518 11.5955 12.5867 11.7164 12.5402C12.0513 12.3913 12.4699 12.4751 12.7303 12.7355C12.8978 12.9123 13.0001 13.1541 13.0001 13.396C13.0001 13.4518 12.9908 13.5169 12.9815 13.5821C12.9722 13.6379 12.9536 13.6937 12.9257 13.7495C12.9071 13.8053 12.8792 13.8611 12.842 13.9169C12.8141 13.9634 12.7676 14.0099 12.7303 14.0565C12.5536 14.2239 12.3117 14.3262 12.0699 14.3262Z" fill="#253017"/>
<path d="M15.3257 14.3262C15.2048 14.3262 15.0839 14.2983 14.9723 14.2518C14.8513 14.2053 14.7583 14.1402 14.6653 14.0565C14.6281 14.0099 14.5909 13.9634 14.5536 13.9169C14.5164 13.8611 14.4885 13.8053 14.4699 13.7495C14.442 13.6937 14.4234 13.6379 14.4141 13.5821C14.4048 13.5169 14.3955 13.4518 14.3955 13.396C14.3955 13.1541 14.4978 12.9123 14.6653 12.7355C14.7583 12.6518 14.8513 12.5867 14.9723 12.5402C15.3164 12.3913 15.7257 12.4751 15.9862 12.7355C16.1536 12.9123 16.256 13.1541 16.256 13.396C16.256 13.4518 16.2467 13.5169 16.2374 13.5821C16.2281 13.6379 16.2095 13.6937 16.1816 13.7495C16.1629 13.8053 16.135 13.8611 16.0978 13.9169C16.0699 13.9634 16.0234 14.0099 15.9862 14.0565C15.8095 14.2239 15.5676 14.3262 15.3257 14.3262Z" fill="#253017"/>
<path d="M8.81402 17.5813C8.69309 17.5813 8.57216 17.5534 8.46053 17.5068C8.3489 17.4603 8.24658 17.3952 8.15356 17.3115C7.98612 17.1347 7.88379 16.8929 7.88379 16.651C7.88379 16.5301 7.9117 16.4092 7.95821 16.2975C8.00472 16.1766 8.06984 16.0743 8.15356 15.9906C8.49774 15.6464 9.1303 15.6464 9.47449 15.9906C9.64193 16.1673 9.74425 16.4092 9.74425 16.651C9.74425 16.8929 9.64193 17.1347 9.47449 17.3115C9.29774 17.4789 9.05588 17.5813 8.81402 17.5813Z" fill="#253017"/>
<path d="M12.0699 17.5813C11.828 17.5813 11.5862 17.4789 11.4094 17.3115C11.242 17.1347 11.1396 16.8929 11.1396 16.651C11.1396 16.5301 11.1676 16.4092 11.2141 16.2975C11.2606 16.1766 11.3257 16.0743 11.4094 15.9906C11.7536 15.6464 12.3862 15.6464 12.7303 15.9906C12.8141 16.0743 12.8792 16.1766 12.9257 16.2975C12.9722 16.4092 13.0001 16.5301 13.0001 16.651C13.0001 16.8929 12.8978 17.1347 12.7303 17.3115C12.5536 17.4789 12.3117 17.5813 12.0699 17.5813Z" fill="#253017"/>
<path d="M15.3257 17.582C15.0839 17.582 14.842 17.4797 14.6653 17.3122C14.5816 17.2285 14.5164 17.1262 14.4699 17.0053C14.4234 16.8936 14.3955 16.7727 14.3955 16.6518C14.3955 16.5308 14.4234 16.4099 14.4699 16.2983C14.5164 16.1773 14.5816 16.075 14.6653 15.9913C14.8792 15.7774 15.2048 15.675 15.5025 15.7401C15.5676 15.7494 15.6234 15.768 15.6792 15.7959C15.735 15.8145 15.7909 15.8425 15.8467 15.8797C15.8932 15.9076 15.9397 15.9541 15.9862 15.9913C16.1536 16.1681 16.256 16.4099 16.256 16.6518C16.256 16.8936 16.1536 17.1355 15.9862 17.3122C15.8095 17.4797 15.5676 17.582 15.3257 17.582Z" fill="#253017"/>
<path d="M19.977 9.99105H4.16301C3.78161 9.99105 3.46533 9.67477 3.46533 9.29338C3.46533 8.91198 3.78161 8.5957 4.16301 8.5957H19.977C20.3584 8.5957 20.6746 8.91198 20.6746 9.29338C20.6746 9.67477 20.3584 9.99105 19.977 9.99105Z" fill="#253017"/>
<path d="M15.7907 21.9992H8.34884C4.95349 21.9992 3 20.0457 3 16.6503V8.74337C3 5.34802 4.95349 3.39453 8.34884 3.39453H15.7907C19.186 3.39453 21.1395 5.34802 21.1395 8.74337V16.6503C21.1395 20.0457 19.186 21.9992 15.7907 21.9992ZM8.34884 4.78988C5.68837 4.78988 4.39535 6.0829 4.39535 8.74337V16.6503C4.39535 19.3108 5.68837 20.6038 8.34884 20.6038H15.7907C18.4512 20.6038 19.7442 19.3108 19.7442 16.6503V8.74337C19.7442 6.0829 18.4512 4.78988 15.7907 4.78988H8.34884Z" fill="#253017"/>
</svg>
