<svg width="24" height="24" viewBox="0 0 24 24" fill="none" xmlns="http://www.w3.org/2000/svg">
<path d="M12 22C6.48372 22 2 17.5163 2 12C2 6.48372 6.48372 2 12 2C17.5163 2 22 6.48372 22 12C22 17.5163 17.5163 22 12 22ZM12 3.39535C7.25581 3.39535 3.39535 7.25581 3.39535 12C3.39535 16.7442 7.25581 20.6047 12 20.6047C16.7442 20.6047 20.6047 16.7442 20.6047 12C20.6047 7.25581 16.7442 3.39535 12 3.39535Z" fill="#253017"/>
<path d="M15.4505 15.6552C15.3296 15.6552 15.2087 15.6273 15.097 15.5529L12.2133 13.832C11.497 13.4041 10.9668 12.4645 10.9668 11.6366V7.82267C10.9668 7.44128 11.2831 7.125 11.6645 7.125C12.0459 7.125 12.3621 7.44128 12.3621 7.82267V11.6366C12.3621 11.9715 12.6412 12.4645 12.9296 12.632L15.8133 14.3529C16.1482 14.5483 16.2505 14.9762 16.0552 15.311C15.9156 15.5343 15.6831 15.6552 15.4505 15.6552Z" fill="#253017"/>
</svg>
