<svg xmlns="http://www.w3.org/2000/svg" width="460" height="304" fill="none" viewBox="0 0 460 304">
  <path fill="#253017" d="M88.2 242c-28.5-2-27.3-25.9-28.8-48.6-3.3-49.8-1.4-94.1.7-143.4.5-12.7 3.5-23.5 17.5-28 5-1.6 10.3-1.5 15.5-1.8l15.8-.7 147-3c15.1-.2 109-.6 120.3 5.3 5.6 3 9.3 8.2 11.2 14.1 1.8 13 2.7 26.2 3.7 39.2a845 845 0 0 1 1.5 131.2c-1 14.3-4.3 27-21.6 29.3-10.6 1.4-24.7 1.8-35.5 2.3-4.8.2-9.9.1-14.7.8-19.4.4-38.8 2.3-58.3 2.3v2.9c1.4 16.8 34.7 42-2 43.8a1029 1029 0 0 1-55.6 1.8c-31.7.2-22.6-10-16.4-31.3 1.3-4.4 2-8.7 3-13.2 0-.7.2-1 0-1.7-1.1-.6-19-.3-21.8-.3l-71.1-.9H88.2m295-38.3 1.1-6.5c-26.7 4.8-64.2 5.2-91.4 6.2l-83.9 2.9q-14.5.3-29.2.3h-40q-22 0-43.7-.3l-16-.4c-3.4 0-6.9-.3-10.2 0 .9 10 .9 19.6 10.3 25 5.6 3.2 17.8 1.9 24.1 2l32.5.3c71.2 1 142.2-1.2 213.2-5.7l13.3-.9c17.8-1.1 18.7-5.7 20-22.9m-130.6 40V242c-10.5-1-25.7.2-36.5.6l-9.2.2c-3.3 0-5.5-1.1-5.9 2q-2.2 13-6.6 25.3c-.7 1.8-3.2 7.3-2.7 9 3.2 3.4 55.5-.2 62.5-.3 21.8-.2 15-1 7.5-13.1a71 71 0 0 1-9-22.2M258.5 26q-13.2-.1-26.5 0l-101.6 2.5q-16.8.4-33.7 1.2c-28.8 1.4-25.6 5.7-27 29.3l-1.9 32.1q-1.5 35.3-.4 70.6c.3 11.3 1.5 22.6 1.8 34 8.6 1.2 18.3.5 27 .7q10 .5 20 .5l77 .1 11-.4 27.8-.7c44.3-1.3 88.6-2.7 132.8-6.2 5.4-.4 14.1-.8 19.2-2l.1-.2-.1-.2h.2v-.3h-.3v-.4l.4-.1c2.5-46.2-.4-92.7-4.8-138.7-1.6-16.3-3-18.2-20.8-19.6A1045 1045 0 0 0 258.5 26"/>
  <path fill="#508826" d="M387.4 36c3.2 1.2 6 3.9 7.3 7 1.8 4.4 3.7 34.8 4.2 43.6l1.5 25.2q.8 17.3 1 34.4c.4 17.7 1.8 71.2-3 83.4-5.9 14.5-17.5 14-30 14h-19.6c-15.9 0-31.9.4-47.8 0h-38.5V241c19.5 0 38.9-2 58.3-2.3 4.8-.7 9.9-.6 14.7-.8 10.8-.5 24.9-.9 35.5-2.3 17.3-2.2 20.6-15 21.6-29.3a845 845 0 0 0-1.5-131.2c-1-13-1.9-26.2-3.7-39.2"/>
  <path fill="#253017" d="M368.8 52.6q.2-3.6-.8-7c-3.7-10.5-19.2-3.9-23-5.8q-1.4-.9-.5-2.4c1-1.4 6.8-1.1 8.6-1.3 9-.7 17 .8 19 11a48 48 0 0 1 .6 10.2c-2.1 3.7-3.8-2.7-4-4.7m-276 137.1c-4.7.6-10.8 1.6-15-.7-5.2-2.8-4.2-9.7-4.2-14.5 0-2-1.2-5 1.6-5.6 3.5.2.8 11 2.4 15C80 190 90 185.2 93 186.5c2 .9 1.4 2.8-.4 3.2"/>
  <path fill="#abd27a" d="M80.2 231c-.9-4.5-5.5-14.9-1.3-18.7 1.3-1 36.8-.3 41-.3h98c16.7 0 31.8-.4 48.3-1l68-2.8a625 625 0 0 0 37.3-3.5c4-.5 7.8-1.2 11.7-1-1.2 17.2-2.1 21.8-20 23l-13.2.8q-106.5 6.9-213.2 5.7l-32.5-.4c-6.3 0-18.5 1.3-24-1.8m172.3 12.6A390 390 0 0 1 201 245c.4-3.2 2.6-2 5.9-2.1l9.2-.2c10.8-.3 26-1.6 36.5-.6zM88.2 242q5.3-.1 10.4.1l71.1.9c2.8 0 20.7-.3 21.8.3v1.7q-33.8 1-67.7.5c-9.7-.1-27 1.9-35.6-3.4"/>
  <path fill="#253017" d="M221.5 169.3c0 1.7.7 5-.2 6.3-.7.8-1.8.9-2.5.2-1.3-1-1-11.3-1-13 0-3.7-1-6.4 3.7-6.6 3.3-1.4 9.5 1.8 8.6 6.6-.5 2.7-2.7 4-4.8 5.4 1.6 1.1 5.5 4.2 6 6.1-.7 2.6-2.5 1.6-4 .4a76 76 0 0 0-5.8-5.4m.9-9.4h-.9c0 3.4-1.3 7.4 3.2 4.6 4-2.4 2-5.5-2.3-4.6m-29.7 14c2 0 5-.4 6.7-.2 1.2 0 1.7 1.8 1 2.6-1.4 1.5-9 1.4-10.7 0-2.2-2-1.7-10.9-2-14.2q-.3-5.4 5-5.9c2.2-.3 10.3.4 6 3.7-6.8 0-8.2-2.8-7.1 5.5 1.3-.1 5.5-.3 6.4.4s.7 2.4-.5 2.8c-1.3.5-4.4.1-5.9.2 0 1.3-.6 5 1.1 5m13.9-3.9c0 1.2.7 5.9-1 6.3-1 .3-2.2 0-2.4-1.3a86 86 0 0 1 .1-17.2c.7-1 2.3-1.3 3.5-1.5 4.5-.6 10.2 2.3 8.4 7.6-.8 2.4-3 3.4-5 4.4 1.3 2.5 4.5 3.8 5.4 6.5-.7 2.3-2.3 2-3.7.5zm.6-10c-1.3.3-.7 4.2-.6 5.7a10 10 0 0 0 3.5-1.1c4.2-3 .6-4.6-2.9-4.6"/>
  <path fill="#253017" d="M241.4 175.7a9.6 9.6 0 1 1-.6-19 9.6 9.6 0 0 1 .6 19m-.7-15.4c-8.2 1.3-6.5 13.3 1.1 11.7 7.1-1.4 6.6-13-1.1-11.7m12.8 15.5q-1-.4-1.4-1.3c-.2-.7.4-16 .6-16.5.6-.9 2-1 2.9-1.2 7.5-.6 11.8 5.5 3.6 10.8 1.2 1.4 3.7 3.6 4.5 5 .7 1-.4 4.3-3.6 1.3-1-1.3-2.6-3-3.9-4l-.6-.6c0 2.7.8 5.4-2.1 6.5m2.4-15.5v5l2.7-1.5c3.3-2.5-.1-3.6-2.7-3.5m-81.4-36.5c-.2-3.6.2-7.3 0-10.9-1.8-1.2-24.5 4.6-32 .5-8.4-4.5-.2-13.6 2.9-18.7l15.7-26c3.6-6 7.9-14.3 15-16 9.2-1.1 7.5 8.4 7.4 14.3-.1 10-1.6 26 0 35.5 2.4 0 11.6-.4 9.6 4.4-.8 2-7.5 3.3-9.6 4 .2 6.3 3 26.3-2.3 30.8-2 1.7-4.6.1-5.8-1.7-2.6-3.9-1.8-11.8-1-16.2m.7-63.4c-4.6 3.5-7.4 10.3-10.1 15.2l-17.3 31.1q0 .5.6.5 13.6-.6 26.8-3.5c-.8-7 1.5-40.4.2-43.2h-.3zM295 111.8c-8.8 1.3-21.8 6-29.6 1.8-11.4-6 4.7-24.3 9-31 4.4-6.7 16.3-27.9 24-30 1.8.1 3.8.6 5.1 1.8 6 5 .3 37.3 1 48 2-.6 6.7-1.1 7.8 1.5 2.4 5.3-5 5.6-8.2 7h-.3c-.1 5.8.5 26.4-2.8 29.5-3 2.8-6.6-.6-7.2-3.7-.7-3.8 0-10.8.4-14.9zm2.3-51.4c-6.2 5.4-29 44.7-27.3 46.8h.3c6.5.7 18.5-2.6 25.7-3.5.6-5.7 2.7-41.7 1.3-43.3m-66.4 78.5c-15 4.3-25-6.6-27.6-20.4-2.4-13 0-46 7.6-56.8 3-4.3 7.4-6.4 12.5-7.3 12-1.3 22 6 25.8 17.1 4.5 12.9 4 41.1-2 53.4a28 28 0 0 1-16.3 14m-5-76.7c-13.4 1.8-14.4 35.6-14.4 45.4-.1 11 2.5 27.7 17.3 22.7 18.4-7 16.5-45.3 11-59-2-5.4-8-10-14-9"/>
</svg>
