<svg xmlns="http://www.w3.org/2000/svg" width="460" height="304" fill="none" viewBox="0 0 460 304">
  <path fill="#253017" d="M88.2 241.7c-28.5-2-27.3-25.9-28.8-48.6-3.3-49.7-1.4-94 .7-143.2.5-12.6 3.5-23.5 17.5-28 5-1.6 10.3-1.5 15.5-1.7l15.8-.7 147-3.1c15.1-.1 109-.5 120.3 5.4a24 24 0 0 1 11.2 14c1.8 13 2.7 26.2 3.7 39.1 3.5 43.6 4.8 87.5 1.5 131-1 14.3-4.3 27.1-21.6 29.4-10.6 1.4-24.7 1.8-35.5 2.2-4.8.3-9.9.2-14.7.9-19.4.3-38.8 2.2-58.3 2.2v2.9c1.4 16.8 34.7 42-2 43.8a1285 1285 0 0 1-55.6 1.8c-31.7.2-22.6-10.1-16.4-31.3 1.3-4.4 2-8.7 3-13.2q.2-.8 0-1.7c-1.1-.6-19-.3-21.8-.3l-71.1-.8q-5.3-.3-10.4 0m295-38.3 1.1-6.5c-26.7 4.8-64.2 5.2-91.4 6.2L209 206q-14.5.3-29.2.3h-40q-22 0-43.7-.3l-16-.4c-3.4 0-6.9-.3-10.2 0 .9 9.9.9 19.6 10.3 25 5.6 3.2 17.8 1.8 24.1 1.9l32.5.4q106.8 1.2 213.2-5.7l13.3-.9c17.8-1.1 18.7-5.8 20-22.9m-130.6 39.9v-1.6c-10.5-1-25.7.3-36.5.6l-9.2.2c-3.3 0-5.5-1-5.9 2.1q-2.2 12.8-6.6 25.2c-.7 1.8-3.2 7.3-2.7 9 3.2 3.4 55.5-.3 62.5-.3 21.8-.2 15-1 7.5-13.1a70 70 0 0 1-9-22.1M258.3 26q-13.2-.1-26.5 0l-101.6 2.6q-16.8.4-33.7 1.1c-28.8 1.4-25.6 5.7-27 29.3l-1.9 32.1q-1.5 35.2-.4 70.5c.3 11.3 1.5 22.6 1.8 33.9 8.6 1.2 18.3.5 27 .8l20 .4 77 .1 11-.4 27.8-.7c44.3-1.3 88.6-2.7 132.8-6.2 5.4-.4 14.1-.8 19.2-2l.1-.2-.1-.2h.2v-.2l-.3-.1v-.3l.4-.2c2.5-46.1-.4-92.5-4.8-138.4-1.6-16.4-3-18.2-20.8-19.7-32.6-2.6-67.3-2.6-100.2-2.2"/>
  <path fill="#508826" d="M387.4 35.9c3.2 1.2 6 4 7.3 7 1.8 4.4 3.7 34.8 4.2 43.6l1.5 25.1q.8 17.3 1 34.4c.4 17.6 1.8 71.1-3 83.3-5.9 14.5-17.5 14-30 14h-19.6c-15.9 0-31.9.3-47.8 0h-38.5v-2.7c19.5 0 38.9-1.9 58.3-2.2 4.8-.7 9.9-.6 14.7-.9 10.8-.4 24.9-.8 35.5-2.2 17.3-2.3 20.6-15 21.6-29.3 3.3-43.6 2-87.5-1.5-131-1-13-1.9-26.2-3.7-39.1"/>
  <path fill="#253017" d="M368.8 52.6q.2-3.6-.8-7c-3.7-10.5-19.2-4-23-5.9q-1.4-.9-.5-2.4c1-1.4 6.8-1 8.6-1.3 9-.6 17 .9 19 11a48 48 0 0 1 .6 10.2c-2.1 3.7-3.8-2.7-4-4.6M230 141.2c-18 3-26.4-10.4-27.9-26.5-1.6-18.1.7-56.4 25-58.6 5-1.3 11.8 1.3 15.8 4.3 21.5 15.7 15.7 76.8-12.9 80.8m-2.8-76.4c-17.1 4-18 43.8-14.9 56.4 2.3 9 8.8 12.1 17.7 10.8 22.1-8 23.9-69.8-2.8-67.2"/>
  <path fill="#253017" d="M286.6 141.2h-.6c-21.3.2-25.8-16.5-25.6-35 .1-17.7 5-50.4 28.6-50.1 35.2-.6 34.7 81.2-2.4 85.1m1-75.8c-16 .8-18.7 35.3-18 46.5.7 12.6 4.1 21.2 18 20.1 18.6-5.4 20.5-38 16-52.8-1.6-5.7-9.1-17-16-13.8m-146.3 60.9c2.4.6 4.1 2.1 6.2 3.5 14.2 9 41.5 0 36.7-19.6-2.7-11.3-17.2-13.9-26.8-11.2-3.8 1-11.4 5.3-12.3-1.7-.7-5 1-35.2 4.2-38.5 2.3-2.4 28.3-2.5 32.8-2.7 2.7 0 8.5-.9 10.6.9 1.9 1.5 2 4.7.4 6.5-2.3 2.5-31.7 2.6-36.8 3a120 120 0 0 0-2.3 23.8c13.7-3.6 32.6-.3 38 14.7 10 27.6-22.7 45.5-48 33.4-5-2.9-12.4-10-2.7-12.1m-48.6 63.1c-4.7.6-10.8 1.7-15-.6-5.2-2.8-4.2-9.8-4.2-14.6 0-2-1.2-5 1.6-5.6 3.5.3.8 11.1 2.4 15 2.5 6.2 12.6 1.3 15.6 2.7 2 .8 1.4 2.7-.4 3.1"/>
  <path fill="#abd27a" d="M80.2 230.6c-.9-4.4-5.5-14.8-1.3-18.6 1.3-1.1 36.8-.3 41-.3h98c16.7 0 31.8-.4 48.3-1l68-2.8q18.8-1.2 37.3-3.5c4-.5 7.8-1.2 11.7-1-1.2 17.1-2.1 21.8-20 22.9l-13.2.9q-106.5 6.9-213.2 5.7l-32.5-.4c-6.3 0-18.5 1.3-24-1.9m172.3 12.7a390 390 0 0 1-51.6 1.3c.4-3.2 2.6-2 5.9-2.1l9.2-.2c10.8-.3 26-1.5 36.5-.6zm-164.4-1.6q5.3-.2 10.4 0l71.1 1c2.8 0 20.7-.4 21.8.2v1.7q-33.8 1-67.7.5c-9.7 0-27 1.9-35.6-3.4"/>
  <path fill="#253017" d="M221.5 169.4c0 1.6.7 5-.2 6.3-.7.8-1.8.9-2.5.2-1.3-1.1-1-11.3-1-13 0-3.7-1-6.4 3.7-6.6 3.3-1.4 9.5 1.8 8.6 6.6-.5 2.6-2.7 4-4.8 5.4 1.6 1 5.5 4.2 6 6-.7 2.7-2.5 1.6-4 .4a76 76 0 0 0-5.8-5.3m.9-9.4h-.9c0 3.4-1.3 7.3 3.2 4.5 4-2.3 2-5.4-2.3-4.5m-29.7 14c2 0 5-.4 6.7-.3 1.2.1 1.7 1.9 1 2.7-1.4 1.5-9 1.3-10.7-.1-2.2-2-1.7-10.8-2-14.1q-.3-5.4 5-5.9c2.2-.3 10.3.4 6 3.7-6.8 0-8.2-2.8-7.1 5.5 1.3-.1 5.5-.4 6.4.3 1 .8.7 2.5-.5 2.9-1.3.4-4.4 0-5.9.1 0 1.4-.6 5 1.1 5.1m13.9-3.9c0 1.2.7 5.8-1 6.3-1 .3-2.2 0-2.4-1.4-.3-1.7-.7-16 .1-17.1.7-1 2.3-1.3 3.5-1.5 4.5-.6 10.2 2.3 8.4 7.6-.8 2.4-3 3.4-5 4.4 1.3 2.4 4.5 3.7 5.4 6.4-.7 2.4-2.3 2-3.7.6zm.6-10c-1.3.3-.7 4.2-.6 5.7a10 10 0 0 0 3.5-1.2c4.2-3 .6-4.5-2.9-4.5m34.2 15.8a9.5 9.5 0 1 1-.6-19.1 9.5 9.5 0 0 1 .6 19m-.7-15.4c-8.2 1.3-6.5 13.3 1.1 11.7 7.1-1.4 6.6-13-1.1-11.7m12.8 15.5q-1-.4-1.4-1.3c-.2-.7.4-16 .6-16.4.6-1 2-1 2.9-1.2 7.5-.6 11.8 5.5 3.6 10.8 1.2 1.4 3.7 3.6 4.5 4.9.7 1.1-.4 4.3-3.6 1.3-1-1.3-2.6-3-3.9-4l-.6-.5c0 2.7.8 5.4-2.1 6.4m2.4-15.4v5l2.7-1.6c3.3-2.5-.1-3.5-2.7-3.4"/>
</svg>
