<svg xmlns="http://www.w3.org/2000/svg" width="24" height="24" fill="none" viewBox="0 0 24 24">
  <path fill="#4285f4" d="M24 12.3q0-1.4-.3-2.5H12.2v4.5H19a6 6 0 0 1-2.5 3.9v.1l3.6 2.8h.3q3.5-3.3 3.6-8.8"/>
  <path fill="#34a853" d="M12.2 24q5 0 8.2-3l-4-2.8q-1.4 1.1-4.2 1.2c-3.2 0-6-2.1-7-5l-3.8 2.9c2 4 6 6.7 10.8 6.7"/>
  <path fill="#fbbc05" d="M5.3 14.4a7 7 0 0 1 0-4.8v-.1l-3.9-3v.1a12 12 0 0 0 0 10.8z"/>
  <path fill="#eb4335" d="M12.2 4.6c2.3 0 3.9 1 4.8 1.8l3.4-3.3q-3-3-8.2-3.1C7.5 0 3.3 2.7 1.3 6.6l4 3c1-2.9 3.7-5 7-5"/>
</svg>
