<svg xmlns="http://www.w3.org/2000/svg" width="300" height="300" fill="none" viewBox="0 0 300 300">
  <path fill="#253017" d="M148 30q4-4 5 1c0 4 1 15-1 18-6 3-4-8-4-11z"/>
  <path fill="#abd27a" d="M153 31c7 0 6 4 6 9q1 5-2 9-3 3-5 0c2-3 1-14 1-18"/>
  <path fill="#253017" d="M182 57c-9 2 3-15 4-16q3-4 5 0c0 3-7 14-9 16m-61-1-4 2-7-14c-1-3 2-7 6 0 1 2 6 10 5 12"/>
  <path fill="#abd27a" d="M191 41c9 1-3 18-4 19q-4 1-5-3c2-2 9-13 9-16m-75 3c3-1 7 9 7 10q1 3-2 2c1-2-4-10-5-12m103 18c-2 0-11 8-12 9q-1 4 3 4l12-10c5 6-9 19-17 14-10-7 5-24 14-17M83 62c5-3 17 9 11 11 0-3-8-9-11-11"/>
  <path fill="#253017" d="m222 65-12 10q-4 0-3-4c1-1 10-9 12-9q3 0 3 3M94 73q-1 3-3 2l-12-9q-1-4 4-4c3 2 11 8 11 11m27 142-2-10c-3-14-10-22-18-33a73 73 0 0 1-17-42 66 66 0 1 1 127 24c-8 20-26 29-30 52l-1 9q4 6 1 13 4 5-1 12c3 9-8 15-15 17q-3 9-11 12-14 2-19-12c-7-4-17-5-14-16q-5-6-2-12-3-8 2-14m71-47q16-20 15-46c-3-31-34-56-64-53-33 2-56 32-53 64s26 41 34 70l3 8q7 4 15 5l-2-34c0-8-2-21-4-30l-1-9h-6c-24-2-25-27-9-27 11 0 16 12 18 21l8-3c-14-29 28-26 7 1q6 6 14 8 4-9 12-14c15-5 19 19-8 20-3 8-10 30-10 38v29l11-4q0-11 4-22l10-15zm-52-26 2 11 3 31 3 32h8q-2-14 0-29 3-20 10-39-11-2-17-10zm18 83c-13 0-20 1-32-6-8 4 0 8 2 9 5 4 20 2 26 3 4 0 29-3 22-12l-10 4zm0 10c-8 1-24-1-29-6-10 4-6 8 1 10l-4 4c-3 7 18 10 22 10h5c7 0 20-2 22-10l-17 4q-11 0-21-4l-6-2 21 1c7-1 27-1 25-11q-9 4-19 4m-7-116q-5 4-2 9l1 3c2-3 7-12 1-12m-32 2q-6 2-5 7 4 9 15 10h4c-1-6-6-18-14-17m63 12q-6 4-9 10h4q6-1 8-6 2-3-3-4m-41 124c3 7 11 9 16 4l2-3c-8 1-11 0-18-1"/>
  <path fill="#abd27a" d="m140 182-6-2q-16-7-26-21c-15-25-3-57 21-71s54-8 68 16c12 22 7 45-11 61l-5 4a46 46 0 0 0-17 37v3c-3-3-1-17 0-21l-3-1c0-8 7-30 10-38 27-1 23-25 8-20q-8 5-12 14-8-2-14-8c21-27-21-29-7-1l-8 3c-2-9-7-21-18-21-16 0-15 25 9 27h6l1 9c2 9 4 22 4 30m24-93q-4 2-3 7c2 3 16 4 23 16 3 3 3 7 9 5q3-1 3-4c-4-11-19-25-32-24m32 31a5 5 0 1 0 2 10 5 5 0 0 0-2-10m0 13-3 8c-1 4-6 9 0 10 1-2 10-19 3-18m-8 18-1 2q-1 4 3 4c3-1 1-6-2-6m39-49c-5 4-11-2-6-7 4-4 14-7 18-2-1 1-21 5-12 9M61 93c7-3 24 6 15 9q0-3-2-3z"/>
  <path fill="#253017" d="M239 93q6 2 1 6c-2 1-11 4-13 3-9-4 11-8 12-9M58 98q-1-3 3-5l13 6q3 0 2 3l-3 1z"/>
  <path fill="#abd27a" d="m150 131-1-3q-3-5 2-9c6 0 1 9-1 12m-21 7q-10-1-15-10-1-5 5-7c8-1 13 11 14 17zm98-5c-4-9 14-7 18-1l-15-2q-2 0-3 3m-154-1q-3-3-7-2l-11 2c5-5 19-8 18 0"/>
  <path fill="#253017" d="m55 132 11-2q4-1 7 2l-2 3-16 2q-3-3 0-5m190 0q5 3 0 5l-11-1q-4 0-7-3 1-3 3-3z"/>
  <path fill="#abd27a" d="M173 143q3-6 9-10 5 1 3 4-2 5-8 6zm-28 41-3-31-2-11 9-4q6 8 17 10-7 19-10 39zm74-25c4-2 14 4 15 8zm-139 1-16 8c1-5 12-11 16-8"/>
  <path fill="#253017" d="m233 172-9-4c-3-1-9-3-7-7l2-2 15 8q4 3-1 5m-169-4 16-8c11 3-12 12-14 12q-3-1-2-4"/>
  <path fill="#abd27a" d="M172 194q5-17 20-26l-6 7-10 15-3 5z"/>
  <path fill="#abd27a" d="m173 195-1 4h-1l1-5zm-15 30 8-2 10-4c7 9-18 12-22 12l4-2h-3l-1-1z"/>
  <path fill="#abd27a" d="m151 230 3-2 1 1-2 1z"/>
  <path fill="#deebc5" d="M155 229h3l-4 2-1-1z"/>
  <path fill="#abd27a" d="M158 235q10 0 19-4c2 10-18 10-25 11l4-3 3-1-4 1h-3z"/>
  <path fill="#deebc5" d="m155 239 4-1-3 1z"/>
  <path fill="#abd27a" d="m158 247 17-4c-2 8-15 10-22 10h-5l5-1 5-2h-2q-2 0-1-2z"/>
  <path fill="#abd27a" d="m151 251 4-3q-1 2 1 2z"/>
  <path fill="#deebc5" d="M156 250h2l-5 2-2-1z"/>
</svg>
