<svg width="24" height="24" viewBox="0 0 24 24" fill="none" xmlns="http://www.w3.org/2000/svg">
<path d="M11.9722 22C11.3321 22 10.7291 21.6753 10.3024 21.1095L8.91095 19.2542C8.88312 19.2171 8.7718 19.1707 8.72542 19.1614H8.2616C4.39332 19.1614 2 18.1132 2 12.8998V8.2616C2 4.16141 4.16141 2 8.2616 2H15.6827C19.7829 2 21.9443 4.16141 21.9443 8.2616V12.8998C21.9443 17 19.7829 19.1614 15.6827 19.1614H15.2189C15.1447 19.1614 15.0798 19.1985 15.0334 19.2542L13.6419 21.1095C13.2152 21.6753 12.6122 22 11.9722 22ZM8.2616 3.39147C4.94063 3.39147 3.39147 4.94063 3.39147 8.2616V12.8998C3.39147 17.0928 4.82931 17.7699 8.2616 17.7699H8.72542C9.19852 17.7699 9.73655 18.039 10.0241 18.4193L11.4156 20.2746C11.7403 20.7013 12.2041 20.7013 12.5288 20.2746L13.9202 18.4193C14.2263 18.0111 14.7087 17.7699 15.2189 17.7699H15.6827C19.0037 17.7699 20.5529 16.2208 20.5529 12.8998V8.2616C20.5529 4.94063 19.0037 3.39147 15.6827 3.39147H8.2616Z" fill="#253017"/>
<path d="M16.6108 8.95787H7.3344C6.95407 8.95787 6.63867 8.64247 6.63867 8.26214C6.63867 7.88181 6.95407 7.56641 7.3344 7.56641H16.6108C16.9912 7.56641 17.3066 7.88181 17.3066 8.26214C17.3066 8.64247 16.9912 8.95787 16.6108 8.95787Z" fill="#253017"/>
<path d="M12.9003 13.5946H7.3344C6.95407 13.5946 6.63867 13.2792 6.63867 12.8989C6.63867 12.5185 6.95407 12.2031 7.3344 12.2031H12.9003C13.2806 12.2031 13.596 12.5185 13.596 12.8989C13.596 13.2792 13.2806 13.5946 12.9003 13.5946Z" fill="#253017"/>
</svg>
