<svg xmlns="http://www.w3.org/2000/svg" width="460" height="304" fill="none" viewBox="0 0 460 304">
  <path fill="#253017" d="M88 242c-28-2-27-26-29-49-3-49-1-94 1-143 1-13 4-24 18-28l15-2h16l147-4c15 0 109 0 120 6q9 5 11 14l4 39q6 66 2 131c-1 15-5 27-22 30l-35 2-15 1-58 2v3c1 17 34 42-2 44l-56 2c-32 0-23-11-17-32q3-7 3-13v-2h-21l-71-1zm295-38 1-7c-26 5-64 5-91 6l-84 3-29 1h-40l-44-1H70c1 10 1 20 10 25 6 3 18 2 24 2h33q107 1 213-6h13c18-2 19-6 20-23m-130 40v-2c-11-1-26 0-37 1h-9q-5-1-6 2l-7 25c0 2-3 8-2 9 3 4 55 0 62 0 22 0 15-1 8-13q-7-11-9-22m5-218h-26l-102 3-33 1c-29 1-26 6-28 29l-1 32-1 71 2 34 27 1h108l28-1 133-6 19-2v-1q3-70-5-139c-1-16-3-18-21-20q-49-2-100-2"/>
  <path fill="#508826" d="M387 36q5 2 8 7c2 4 3 35 4 44l1 25 1 34c1 18 2 71-3 84-5 14-17 14-30 14H263v-3l58-2 15-1 35-2c17-3 21-15 22-30q4-65-2-131z"/>
  <path fill="#253017" d="m369 53-1-7c-4-11-19-4-23-6l-1-3 9-1q15-3 19 11l1 10c-2 4-4-2-4-4M93 190q-8 1-15-1c-6-3-4-10-5-15q-1-4 2-5c4 0 1 11 2 15 3 6 13 1 16 3q3 1 0 3"/>
  <path fill="#abd27a" d="M80 231c-1-5-5-15-1-19h139l48-1 68-3 38-3 11-1c-1 17-2 21-20 23h-13q-107 7-213 6h-33c-6 0-18 1-24-2m173 13-52 1q1-3 6-2h9c11-1 26-2 37-1zm-165-2h11l71 1h21v2l-67 1c-10-1-27 1-36-4"/>
  <path stroke="#253017" strokeLinecap="round" strokeLinejoin="round" strokeWidth="1.5" d="M262 149a45 45 0 0 0-71 0m71 0a54 54 0 1 0-71 0m71 0a53 53 0 0 1-71 0m53-54a18 18 0 1 1-35 0 18 18 0 0 1 35 0"/>
</svg>
