<svg width="24" height="24" viewBox="0 0 24 24" fill="none" xmlns="http://www.w3.org/2000/svg">
<path d="M16.6512 20.2093H7.34884C3.95349 20.2093 2 18.2558 2 14.8605V8.34884C2 4.95349 3.95349 3 7.34884 3H16.6512C20.0465 3 22 4.95349 22 8.34884V14.8605C22 18.2558 20.0465 20.2093 16.6512 20.2093ZM7.34884 4.39535C4.68837 4.39535 3.39535 5.68837 3.39535 8.34884V14.8605C3.39535 17.5209 4.68837 18.814 7.34884 18.814H16.6512C19.3116 18.814 20.6047 17.5209 20.6047 14.8605V8.34884C20.6047 5.68837 19.3116 4.39535 16.6512 4.39535H7.34884Z" fill="#253017"/>
<path d="M11.9998 12.4144C11.2184 12.4144 10.4277 12.1726 9.82305 11.6795L6.91142 9.35396C6.61375 9.1121 6.55794 8.67489 6.7998 8.37721C7.04166 8.07954 7.47887 8.02373 7.77654 8.26559L10.6882 10.5912C11.3951 11.1586 12.5951 11.1586 13.3021 10.5912L16.2137 8.26559C16.5114 8.02373 16.9579 8.07024 17.1905 8.37721C17.4324 8.67489 17.3858 9.1214 17.0789 9.35396L14.1672 11.6795C13.5719 12.1726 12.7812 12.4144 11.9998 12.4144Z" fill="#253017"/>
</svg>
