<svg xmlns="http://www.w3.org/2000/svg" width="300" height="300" fill="none" viewBox="0 0 300 300">
  <path fill="#253017" d="M194 128c2-7 8-16 9-23-3-3-6-1-9-7-4-7-10-36-4-43 7-9 43-14 55-15 21-2 23 26 22 41q1 12-8 18-12 6-26 7c-11 0-7-2-15 6l-18 17q-4 3-6-1m51-83c-9 0-45 6-51 13-5 5 1 36 6 40 3 3 9 0 10 4l-5 11-1 2 11-10c7-7 4-5 14-6 7-1 20-3 25-6q8-6 6-15c0-7-1-26-6-31q-4-3-9-2"/>
  <path fill="#253017" d="M114 64c5-10 17-16 28-17h4c24 2 42 20 40 44-1 8-4 20-9 25q-3 16-12 30-2 5-6 9c2 10 6 9 15 12 10 4 28 10 34 18 5 6 9 31 10 40q3 14-6 23c-13 11-81 13-104 10q-17-1-33-7-7 0-10-7c-5-11 0-45 6-57 4-10 33-18 43-22q6-2 7-6c-9-8-15-23-17-35l-1-5q-6-5-10-13-10-25 15-39-11-2-18 4c-5 3-8-2 0-6q11-5 24-1m57 4c-17-25-62-11-50 7q4 9 14 13 13 5 28 4l-3-3c-3-3-14-3-11-8q2-2 6 0 12 2 17 12l3 12c2-5 4-14 4-19s-4-14-8-18m-55 12-3-11q-28 14-12 41l2 4c0-3 0-14 2-15q4-3 3 3v4q11-6 17-16l-1-1zm52 94-3-1c-13 29-17 47-20 79h5l30-3v-24l1-12q3-5 6 0l1 34h2c6-2 17-2 19-8 4-10-1-37-6-46-4-10-25-16-35-19m-52 4-2-5c-7 3-33 10-36 17a113 113 0 0 0-6 53l17 4-1-28 1-8c2-3 7-2 7 2l1 22v14h2c12 3 28 3 40 3-2-18-10-47-18-63zm13-85c-6 11-10 13-21 17 1 15 7 33 19 43q8 8 20 2c14-9 27-38 20-56q-17 2-32-3zm23 68q-11 7-23 2l-8 8q4 7 10 10 17 11 27-7l2-3-6-6zm-27 26q12 24 17 50l2-11 9-36c-11 5-18 1-28-3m84-117c-2 1-7 6-7 1q0-3 4-5 12-8 28-9c2 0 11-1 9 3q-2 3-6 2-12-1-22 5z"/>
  <path fill="#abd27a" d="M121 75c3-19 34-19 47-10l3 3c4 4 8 13 8 18 0 3-5 5-7 7q-5-11-17-12-4-2-6 0c-3 5 8 5 11 8-2 3-21-2-25-1q-10-4-14-13"/>
  <path fill="#253017" d="M216 76c-2 1-8 7-9 2l5-5q10-7 23-8c2 0 12-1 11 3q-3 3-8 2-12 0-22 6"/>
  <path fill="#253017" d="M225 81c-2 1-6 5-8 3-7-5 15-10 18-11 2 0 13 0 11 4q-2 4-6 1-8 0-15 3"/>
  <path fill="#abd27a" d="m116 80 8 9-5 5c-2 3-10 10-11 8q1-6-3-3c-2 1-2 12-2 15l-2-4v-4c-3-13 5-20 15-26"/>
  <path fill="#253017" d="M232 88c-6 3-9-4 2-6 2 0 8 0 6 4q-3 2-8 2"/>
  <path fill="#508826" d="M179 86c0 5-2 14-4 19l-3-12c2-2 7-4 7-7m-44 2c4-1 23 4 25 1l3 3q-15 1-28-4m-11 1 1 1q-5 10-17 16v-4c1 2 9-5 11-8z"/>
  <path fill="#abd27a" d="M168 174c10 3 31 9 35 19 5 9 10 36 6 46-2 6-13 6-19 8l1-23 1-8-5-3q-3-5-6 0l-1 12v24l-30 3 1-11q4-35 17-67m-96 66v-4c0-9 5-32 9-40 5-9 25-15 35-18l5 11c8 16 16 45 18 63-12 0-28 0-40-3v-33q0-2-3-3c0-4-5-5-7-2l-1 8 1 28-17-4z"/>
</svg>
