<svg xmlns="http://www.w3.org/2000/svg" width="24" height="24" fill="none" viewBox="0 0 24 24">
  <path fill="#253017" d="M15.49 22H8.05c-4.298 0-5.098-2-5.303-3.944l-.697-7.451c-.103-.977-.13-2.419.837-3.498.837-.93 2.223-1.377 4.232-1.377h9.303c2.018 0 3.404.456 4.232 1.377.968 1.08.94 2.521.837 3.507l-.697 7.433C20.588 20 19.788 22 15.49 22M7.118 7.117c-1.572 0-2.65.306-3.2.92-.456.503-.604 1.275-.483 2.428l.697 7.451c.158 1.47.558 2.689 3.917 2.689h7.441c3.35 0 3.758-1.219 3.917-2.698l.697-7.432c.121-1.163-.027-1.935-.483-2.438-.55-.614-1.628-.92-3.2-.92z"/>
  <path fill="#253017" d="M15.49 7.116a.703.703 0 0 1-.698-.697v-.745c0-1.655 0-2.279-2.279-2.279h-1.488c-2.28 0-2.28.624-2.28 2.28v.744a.703.703 0 0 1-.697.697.703.703 0 0 1-.697-.697v-.745C7.35 4.037 7.35 2 11.025 2h1.488c3.675 0 3.675 2.037 3.675 3.674v.745a.703.703 0 0 1-.698.697m-3.72 9.303c-2.56 0-2.56-1.581-2.56-2.53v-.958c0-1.312.317-1.628 1.629-1.628h1.86c1.312 0 1.628.316 1.628 1.628v.93c0 .967 0 2.558-2.558 2.558m-1.164-3.72v1.19c0 .958 0 1.135 1.163 1.135s1.163-.15 1.163-1.144v-1.182h-2.326"/>
  <path fill="#253017" d="M13.63 14.578a.694.694 0 0 1-.689-.614.7.7 0 0 1 .605-.782 14.7 14.7 0 0 0 6.79-2.679.693.693 0 0 1 .977.158.7.7 0 0 1-.158.977 16.15 16.15 0 0 1-7.442 2.94zm-3.72.007h-.085a15.96 15.96 0 0 1-7.181-2.688.7.7 0 0 1-.186-.967.7.7 0 0 1 .967-.186 14.66 14.66 0 0 0 6.55 2.455.7.7 0 0 1 .613.773.67.67 0 0 1-.679.613"/>
</svg>
