<svg xmlns="http://www.w3.org/2000/svg" width="24" height="24" fill="none" viewBox="0 0 24 24">
  <path fill="#253017" d="M12 22C6.484 22 2 17.516 2 12S6.484 2 12 2s10 4.484 10 10-4.484 10-10 10m0-18.605c-4.744 0-8.605 3.86-8.605 8.605 0 4.744 3.86 8.605 8.605 8.605 4.744 0 8.605-3.86 8.605-8.605 0-4.744-3.86-8.605-8.605-8.605"/>
  <path fill="#253017" d="M9.21 21.07h-.93a.703.703 0 0 1-.698-.698c0-.382.297-.689.679-.698a27.43 27.43 0 0 1 0-15.349.693.693 0 0 1-.68-.698c0-.381.317-.697.698-.697h.93c.224 0 .438.111.568.288.13.186.168.419.093.633a26 26 0 0 0 0 16.307.7.7 0 0 1-.093.632.73.73 0 0 1-.567.28m5.58 0a.693.693 0 0 1-.66-.92 26 26 0 0 0 0-16.309.697.697 0 1 1 1.32-.447 27.27 27.27 0 0 1 .001 17.182.69.69 0 0 1-.66.493"/>
  <path fill="#253017" d="M12 16.837a27.1 27.1 0 0 1-7.674-1.098.7.7 0 0 1-.698.68.703.703 0 0 1-.698-.699v-.93c0-.223.112-.437.289-.567a.7.7 0 0 1 .632-.093 26 26 0 0 0 16.307 0 .7.7 0 0 1 .633.093c.186.13.288.344.288.567v.93a.703.703 0 0 1-.698.698.693.693 0 0 1-.697-.679A27.3 27.3 0 0 1 12 16.837m8.372-6.93a.6.6 0 0 1-.223-.038 26 26 0 0 0-16.307 0 .697.697 0 0 1-.884-.437.71.71 0 0 1 .447-.883 27.27 27.27 0 0 1 17.181 0c.363.12.567.52.437.883a.68.68 0 0 1-.65.475"/>
</svg>
